# xmcd CD database file
#
# Track frame offsets:
#	175
#	17152
#	35235
#	52805
#	68667
#	85000
#	104612
#	121295
#	133377
#	148120
#	164072
#
# Disc length: 2430 seconds
#
# Revision: 0
# Processed by: cddbd v1.4PL0 Copyright (c) Steve Scherf et al.
# Submitted via: CDex 1.50beta10
#
DISCID=a1097c0b
DTITLE=B5 - Fire It Up
DYEAR=2001
DGENRE=Country
TTITLE0=Too Many Highways
TTITLE1=Sweet Jesse Brown
TTITLE2=Cold Hard Truth
TTITLE3=That's How I Got To Memphis
TTITLE4=Dimmed Lights
TTITLE5=Murder On Music Row
TTITLE6=Anywhere The Wind Blows
TTITLE7=Don't Tell Me It's Over
TTITLE8=(I Heard That) Lonesome Whistle
TTITLE9=Drink My Wife Away
TTITLE10=Hickory Wind
EXTD=YEAR: 2001
EXTT0=
EXTT1=
EXTT2=
EXTT3=
EXTT4=
EXTT5=
EXTT6=
EXTT7=
EXTT8=
EXTT9=
EXTT10=
PLAYORDER=
